<svg width="180" height="180" viewBox="0 0 180 180" fill="none" xmlns="http://www.w3.org/2000/svg">
<path fill-rule="evenodd" clip-rule="evenodd" d="M91.3273 4.22566C99.5963 3.48614 108.258 3.62963 116.493 4.51217C133.702 6.35634 149.308 12.8021 160.634 27.7526C170.913 41.3215 174.932 57.899 175.99 74.7628C176.62 84.8097 176.08 94.4963 174.643 104.405C173.198 114.364 169.997 123.837 166.878 133.069C166.745 133.463 166.612 133.856 166.48 134.249C165.996 135.682 165.556 137.165 165.101 138.699C165.058 138.844 165.015 138.99 164.971 139.136C164.474 140.811 163.955 142.536 163.357 144.227C162.163 147.602 160.61 150.975 158.113 153.774C152.46 160.113 145.802 163.998 138.129 166.491C126.955 170.122 114.938 172.703 103.299 173.811C95.3495 174.567 87.4086 174.399 79.5678 174.233C76.9717 174.178 74.3865 174.123 71.8156 174.102C58.4282 173.994 46.2538 170.634 34.3295 164.249C29.4938 161.659 23.393 157.736 20.1473 152.303C16.1229 145.567 12.6369 138.745 9.14259 131.758C2.78634 119.048 1.57579 104.496 1.93103 90.6446C2.00071 87.9277 2.4351 85.3218 2.87653 82.8466C2.92054 82.5998 2.96458 82.3545 3.00837 82.1106C3.41065 79.8698 3.79301 77.74 3.95673 75.5636C4.01481 74.7916 4.0676 74.0087 4.12094 73.2176C4.4007 69.0685 4.69568 64.6936 5.84871 60.4787C6.34681 58.6579 6.64412 56.7471 6.96076 54.7121C7.02469 54.3012 7.08942 53.8852 7.15675 53.4639C7.54717 51.0206 8.02203 48.4318 8.98178 46.0143C10.0933 43.2145 11.5867 40.4778 12.9815 37.922C13.3025 37.3338 13.6182 36.7552 13.9229 36.1876C17.5567 29.4179 22.987 23.7159 28.475 18.9911C33.4785 14.6834 40.3259 9.34207 47.2787 7.93803C60.6215 5.2436 74.1454 4.87874 87.5248 4.86263C88.7287 4.59988 90.0173 4.34282 91.3273 4.22566ZM87.9368 8.61225C88.1319 8.61211 88.327 8.61204 88.5222 8.61204C88.9309 8.61204 89.309 8.48129 89.6171 8.25933C90.3061 8.12758 90.98 8.02168 91.6613 7.96076C99.6669 7.2448 108.082 7.38225 116.094 8.24082C132.581 10.0077 147.108 16.1081 157.645 30.0171C167.309 42.7744 171.215 58.528 172.247 74.9975C172.859 84.7514 172.337 94.1766 170.932 103.867C169.537 113.479 166.436 122.66 163.289 131.977C163.168 132.334 163.047 132.692 162.926 133.05C162.419 134.552 161.96 136.102 161.509 137.623C161.465 137.772 161.42 137.92 161.376 138.069C160.878 139.746 160.384 141.387 159.821 142.976C158.694 146.163 157.34 149.008 155.315 151.278C150.173 157.043 144.119 160.602 136.971 162.924C126.039 166.476 114.291 168.998 102.944 170.078C95.231 170.811 87.6 170.65 79.8165 170.486C77.1802 170.43 74.5264 170.374 71.8461 170.353C59.1172 170.249 47.5358 167.067 36.0997 160.943C31.3351 158.391 26.0488 154.87 23.3665 150.38C19.4196 143.773 15.9867 137.06 12.4966 130.081C6.5521 118.194 5.32997 104.382 5.6798 90.7408C5.74148 88.3356 6.12723 85.9781 6.56828 83.505C6.61219 83.2588 6.65671 83.0111 6.70148 82.7621C7.09947 80.5483 7.51709 78.2253 7.69616 75.8449C7.75875 75.0129 7.81479 74.1898 7.87028 73.3749C8.1528 69.2252 8.42087 65.288 9.46581 61.4682C10.0251 59.4237 10.3601 57.2645 10.6759 55.2289C10.7374 54.8325 10.7982 54.4408 10.8598 54.0556C11.2478 51.6274 11.6731 49.3981 12.4672 47.398C13.486 44.8317 14.8413 42.346 16.2279 39.803C16.5605 39.193 16.895 38.5797 17.227 37.9612C20.5549 31.7613 25.6063 26.4092 30.9217 21.833C35.9809 17.4773 42.149 12.7996 48.021 11.6138C58.566 9.48439 69.276 8.84398 80.0922 8.67056C80.425 9.19278 81.0093 9.53916 81.6745 9.53916C83.5613 9.53916 85.3601 9.17852 86.9892 8.82165C87.2064 8.77409 87.42 8.72673 87.6307 8.68004C87.7334 8.65727 87.8354 8.63465 87.9368 8.61225Z" fill="#292929"/>
<path fill-rule="evenodd" clip-rule="evenodd" d="M83.9484 7.5C84.9839 7.5 85.8234 8.33947 85.8234 9.375V48.8701C85.8234 53.9632 85.9296 59.0357 86.0363 64.1333C86.1429 69.224 86.2501 74.3414 86.2501 79.4892C86.2501 81.4535 85.0538 83.1473 83.8228 84.417C82.536 85.7442 80.8773 86.9482 79.3028 87.9447C77.7141 88.9501 76.1362 89.7908 74.9621 90.3779C74.373 90.6725 73.8808 90.9055 73.5336 91.066C73.4108 91.1227 73.306 91.1705 73.2212 91.2087L61.2962 101.051L60.9461 101.362C60.7043 101.577 60.3533 101.888 59.9161 102.275C59.0419 103.049 57.8228 104.127 56.4434 105.341C53.6873 107.766 50.282 110.744 47.7091 112.932C46.5273 113.936 45.4032 114.823 44.3252 115.673C41.5419 117.869 39.0667 119.822 36.7042 122.932C34.9928 125.185 32.9899 126.701 31.1439 128.037C30.9665 128.165 30.7911 128.291 30.6175 128.416C28.9437 129.622 27.4505 130.697 26.1205 132.159C24.9665 133.427 23.71 134.273 22.5881 134.987C22.4246 135.091 22.2653 135.192 22.1097 135.29C21.1598 135.89 20.3493 136.401 19.5735 137.086C19.4066 137.233 19.1639 137.402 19.0198 137.503L19.0004 137.516C18.9622 137.543 18.9246 137.569 18.8876 137.595C18.7815 137.669 18.6807 137.739 18.5857 137.807C18.2623 138.37 17.6546 138.75 16.9583 138.75C16.8267 138.75 16.4557 138.743 16.0515 138.539C15.5086 138.265 15.0321 137.686 15.0016 136.908C14.9794 136.344 15.2118 135.942 15.2862 135.818C15.388 135.65 15.4965 135.525 15.5607 135.455C15.7866 135.21 16.0899 134.985 16.2544 134.865C16.4215 134.743 16.6078 134.613 16.7594 134.507C16.7925 134.484 16.824 134.462 16.8533 134.442C16.9703 134.36 17.0376 134.312 17.071 134.287C17.0994 134.267 17.1034 134.264 17.0929 134.273C18.1125 133.374 19.2008 132.689 20.1412 132.097C20.2896 132.004 20.4343 131.913 20.5745 131.824C21.643 131.143 22.545 130.517 23.3466 129.636C24.9564 127.866 26.7706 126.562 28.4079 125.386C28.5897 125.255 28.7692 125.126 28.9461 124.998C30.7592 123.687 32.3668 122.443 33.718 120.664C36.3915 117.144 39.3907 114.779 42.2952 112.488C43.3076 111.69 44.3086 110.9 45.2802 110.074C47.8269 107.909 51.2117 104.95 53.9659 102.526C55.3418 101.315 56.5579 100.24 57.43 99.4675C57.866 99.0814 58.216 98.771 58.4569 98.5572L58.8277 98.2279L60.075 99.6278L58.8292 98.2266L58.855 98.2037L71.236 87.9849L71.4786 87.8797L71.4834 87.8776L71.5048 87.8683L71.5965 87.8275C71.6788 87.7908 71.8022 87.7351 71.9607 87.6618C72.2779 87.5152 72.735 87.2989 73.285 87.0239C74.3889 86.4719 75.8485 85.6929 77.2974 84.776C78.7604 83.85 80.1392 82.8291 81.1305 81.8066C82.1776 80.7266 82.5001 79.946 82.5001 79.4892C82.5001 74.3866 82.3939 69.3094 82.2872 64.2118L82.2868 64.1945C82.1803 59.1091 82.0734 54.0032 82.0734 48.8701V9.375C82.0734 8.33947 82.9129 7.5 83.9484 7.5Z" fill="#292929"/>
<path fill-rule="evenodd" clip-rule="evenodd" d="M84.0907 82.5017C85.1253 82.4576 85.9997 83.2606 86.0438 84.2952C86.2927 90.1375 86.3441 109.057 86.0431 114.98C85.857 118.64 85.6153 122.259 85.3747 125.862C84.9444 132.305 84.5174 138.698 84.4176 145.194C84.3362 150.485 84.3582 155.317 84.6031 160.542C84.7281 163.21 84.8276 166.043 84.8276 168.75C84.8276 169.786 83.9882 170.625 82.9526 170.625C81.9171 170.625 81.0776 169.786 81.0776 168.75C81.0776 166.127 80.981 163.36 80.8572 160.718C80.6075 155.39 80.5859 150.476 80.668 145.136C80.7691 138.558 81.2078 131.979 81.6422 125.463C81.881 121.882 82.1184 118.321 82.2979 114.79C82.5917 109.008 82.5423 90.2075 82.2972 84.4548C82.2531 83.4202 83.0561 82.5458 84.0907 82.5017Z" fill="#292929"/>
<path fill-rule="evenodd" clip-rule="evenodd" d="M83.2483 79.1263C84.076 78.504 85.2515 78.6705 85.8738 79.4982C87.7663 82.0155 90.398 83.8394 93.0613 85.6434C99.751 90.1747 106.4 95.0399 112.626 100.859C120.513 108.23 128.24 116.024 135.933 123.784C140.205 128.093 144.467 132.392 148.74 136.601C149.638 137.486 150.576 138.599 151.491 139.692C151.542 139.754 151.594 139.815 151.646 139.877C152.532 140.936 153.417 141.994 154.329 142.959C155.296 143.985 156.226 144.834 157.121 145.42C158.017 146.007 158.757 146.25 159.375 146.25C160.411 146.25 161.25 147.089 161.25 148.125C161.25 149.161 160.411 150 159.375 150C157.769 150 156.314 149.374 155.066 148.557C153.817 147.739 152.654 146.65 151.601 145.533C150.61 144.483 149.658 143.345 148.788 142.305C148.73 142.236 148.673 142.168 148.616 142.1C147.677 140.978 146.855 140.008 146.108 139.273C141.767 134.995 137.474 130.666 133.19 126.344C125.536 118.624 117.908 110.928 110.066 103.599C104.046 97.9723 97.5789 93.2327 90.9583 88.7482C88.3582 86.987 85.2006 84.8431 82.8764 81.7518C82.2541 80.9241 82.4206 79.7486 83.2483 79.1263Z" fill="#292929"/>
</svg>
